<?xml version="1.0" standalone="no"?>
<!DOCTYPE svg PUBLIC "-//W3C//DTD SVG 20010904//EN"
 "http://www.w3.org/TR/2001/REC-SVG-20010904/DTD/svg10.dtd">
<svg version="1.0" xmlns="http://www.w3.org/2000/svg"
 width="70.000000pt" height="70.000000pt" viewBox="0 0 70.000000 70.000000"
 preserveAspectRatio="xMidYMid meet">
<metadata>
Created by potrace 1.14, written by Peter Selinger 2001-2017
</metadata>
<g transform="translate(0.000000,70.000000) scale(0.100000,-0.100000)"
fill="#000000" stroke="none">
<path d="M193 611 l-153 -86 0 -176 0 -175 151 -85 c83 -46 158 -83 165 -81 8
2 79 40 159 85 l145 82 0 175 0 175 -142 80 c-78 44 -149 83 -158 86 -9 4 -75
-28 -167 -80z m209 -192 c5 -3 38 -5 73 -4 36 0 65 -2 65 -5 0 -4 -25 -24 -55
-45 -30 -20 -55 -39 -55 -42 0 -2 9 -31 20 -64 12 -34 19 -63 17 -65 -2 -2
-29 14 -60 35 l-56 40 -57 -40 c-31 -22 -58 -38 -60 -36 -2 2 6 32 18 67 23
70 27 59 -38 106 -72 52 -73 50 11 49 l78 0 12 40 c7 22 18 54 25 70 l12 30
21 -65 c11 -36 25 -68 29 -71z"/>
</g>
</svg>
