<svg width="62" height="26" viewBox="0 0 62 26" fill="none" xmlns="http://www.w3.org/2000/svg">
<path fill-rule="evenodd" clip-rule="evenodd" d="M61.6181 14.9952H53.334C53.5293 17.0218 54.9785 17.6729 56.623 17.6729C58.3086 17.6729 59.6653 17.2843 60.7856 16.6753V20.1616C59.3639 20.9973 57.7371 21.3982 56.0988 21.3166C51.9773 21.3166 49.0789 18.6914 49.0789 13.462C49.0789 9.0622 51.5354 5.56543 55.5541 5.56543C59.5831 5.56543 61.6798 9.00969 61.6798 13.441C61.6798 13.8611 61.6387 14.7641 61.6181 14.9952ZM55.5335 9.0937C54.4749 9.0937 53.3032 9.86026 53.3032 11.8029H57.6714C57.6714 9.86026 56.5716 9.0937 55.5335 9.0937ZM42.4085 21.3166C40.9284 21.3166 40.024 20.6866 39.4278 20.2246L39.4073 25.0864L35.1727 26V5.84895H39.0373L39.1195 6.92003C40.0158 6.05139 41.2039 5.56663 42.4393 5.56543C45.4199 5.56543 48.2156 8.29564 48.2156 13.336C48.2156 18.8279 45.4405 21.3166 42.4085 21.3166ZM41.432 9.39822C40.4556 9.39822 39.8492 9.75525 39.4073 10.2488L39.4278 16.6753C39.8389 17.1373 40.4351 17.4943 41.432 17.4943C42.9943 17.4943 44.0427 15.7617 44.0427 13.4305C44.0427 11.1729 42.9738 9.39822 41.432 9.39822ZM29.3451 5.84895H33.5899V21.0121H29.3451V5.84895ZM29.3451 0.91357L33.5899 0V3.52827L29.3451 4.45234V0.924071V0.91357ZM24.9049 10.7318V21.0121H20.6704V5.84895H24.4733L24.5966 7.13005C25.6244 5.27141 27.752 5.64943 28.3172 5.84895V9.82876C27.7828 9.65024 25.9636 9.37722 24.9049 10.7318ZM16.1172 15.6882C16.1172 18.2399 18.7895 17.4523 19.3239 17.2213V20.7496C18.7587 21.0646 17.7411 21.3166 16.3536 21.3166C15.7753 21.3339 15.1996 21.2307 14.6615 21.0135C14.1235 20.7962 13.6343 20.4694 13.2238 20.053C12.8132 19.6365 12.4899 19.139 12.2735 18.5908C12.0571 18.0427 11.9521 17.4552 11.9649 16.8643L11.9751 3.03473L16.1069 2.13166V5.84895H19.3342V9.55574H16.1172V15.6987V15.6882ZM11.0707 16.4233C11.0707 19.542 8.69644 21.3166 5.18134 21.3166C3.60399 21.3154 2.04371 20.983 0.597332 20.3401V16.2132C2.0157 17.0008 3.78353 17.5889 5.18134 17.5889C6.12693 17.5889 6.75389 17.3368 6.75389 16.5388C6.75389 14.4596 0.319824 15.2367 0.319824 10.4483C0.319824 7.39257 2.66322 5.56543 6.09609 5.56543C7.49391 5.56543 8.89172 5.77544 10.2998 6.35299V10.4273C8.99857 9.72762 7.55593 9.34656 6.08581 9.31422C5.2019 9.31422 4.60577 9.57674 4.60577 10.2593C4.60577 12.2019 11.0707 11.2779 11.0707 16.4338V16.4233Z" fill="#6772E5"/>
</svg>
